<svg xmlns="http://www.w3.org/2000/svg" viewBox="0 0 512 512" role="img" aria-label="TIRGo">
  <defs>
    <linearGradient id="asphalt" x1="256" y1="0" x2="256" y2="512" gradientUnits="userSpaceOnUse">
      <stop offset="0" stop-color="#161c28" />
      <stop offset="1" stop-color="#070a11" />
    </linearGradient>
    <linearGradient id="go" x1="40" y1="300" x2="470" y2="190" gradientUnits="userSpaceOnUse">
      <stop offset="0" stop-color="#16c95f" />
      <stop offset="0.55" stop-color="#7be000" />
      <stop offset="1" stop-color="#ffb020" />
    </linearGradient>
    <filter id="soft" x="-25%" y="-25%" width="150%" height="150%">
      <feDropShadow dx="0" dy="14" stdDeviation="16" flood-color="#000" flood-opacity="0.35" />
    </filter>
  </defs>
  <rect width="512" height="512" rx="120" fill="url(#asphalt)" />
  <rect x="20" y="20" width="472" height="472" rx="104" fill="none" stroke="#ffffff" stroke-opacity="0.05" stroke-width="2" />
  <rect x="74" y="350" width="364" height="26" rx="13" fill="#2a3342" />
  <g fill="url(#go)">
    <rect x="120" y="360" width="46" height="6" rx="3" />
    <rect x="196" y="360" width="46" height="6" rx="3" />
    <rect x="272" y="360" width="46" height="6" rx="3" />
    <rect x="348" y="360" width="32" height="6" rx="3" />
  </g>
  <g fill="url(#go)" filter="url(#soft)">
    <path opacity="0.5" d="M44 214 h22 l34 42 -34 42 H44 l34 -42 z" />
    <path opacity="0.75" d="M86 214 h22 l34 42 -34 42 H86 l34 -42 z" />
    <path d="M128 214 h22 l34 42 -34 42 H128 l34 -42 z" />
  </g>
  <g filter="url(#soft)">
    <rect x="196" y="180" width="150" height="118" rx="16" fill="#ffffff" />
    <path fill="#ffffff" d="M346 298 V214 q0-6 6-6 h26 q7 0 11 6 l34 50 q3 4 3 9 v25 z" />
    <path fill="url(#go)" d="M360 224 h18 q4 0 7 4 l22 33 h-47 z" />
    <circle cx="250" cy="300" r="30" fill="#0b0e14" />
    <circle cx="250" cy="300" r="13" fill="#ffffff" />
    <circle cx="372" cy="300" r="30" fill="#0b0e14" />
    <circle cx="372" cy="300" r="13" fill="#ffffff" />
  </g>
</svg>
