<svg xmlns="http://www.w3.org/2000/svg" viewBox="0 0 512 512" role="img" aria-label="LoadHUB AI">
  <defs>
    <linearGradient id="bg" x1="72" x2="440" y1="54" y2="458" gradientUnits="userSpaceOnUse">
      <stop offset="0" stop-color="#6d5df6" />
      <stop offset="0.55" stop-color="#9d4eff" />
      <stop offset="1" stop-color="#25d366" />
    </linearGradient>
    <filter id="shadow" x="-20%" y="-20%" width="140%" height="140%">
      <feDropShadow dx="0" dy="20" stdDeviation="20" flood-color="#000" flood-opacity="0.25" />
    </filter>
  </defs>
  <rect width="512" height="512" rx="120" fill="#0b0a12" />
  <rect x="54" y="54" width="404" height="404" rx="104" fill="url(#bg)" filter="url(#shadow)" />
  <path fill="#fff" d="M146 173h56v115h76v51H146V173Zm196 0c34 0 58 20 58 49 0 18-9 32-24 40 20 8 33 25 33 48 0 32-25 53-64 53h-94V173h91Zm-35 75h27c8 0 15-6 15-15s-7-15-15-15h-27v30Zm0 69h34c10 0 17-7 17-17 0-11-7-18-17-18h-34v35Z" />
  <path fill="#fff" fill-opacity="0.92" d="M133 382h246c11 0 20 9 20 20s-9 20-20 20H133c-11 0-20-9-20-20s9-20 20-20Z" />
</svg>
